<svg xmlns:xlink="http://www.w3.org/1999/xlink" xmlns="http://www.w3.org/2000/svg" viewBox="0 0 445 180" width="445"  height="180" ><defs><radialGradient id="logo_svg__SVGID_2_" cx="-928.836" cy="-66.271" r="87.046" gradientTransform="translate(838.895 137.06) scale(.8038)" gradientUnits="userSpaceOnUse"><stop offset="0" stop-color="#fff"></stop><stop offset="0.853" stop-color="#fff" stop-opacity="0.487"></stop><stop offset="0.997" stop-color="#fff" stop-opacity="0.4"></stop></radialGradient></defs><style>.logo_svg__st0{fill:#232320}.logo_svg__st1{fill:#b8b5b1}.logo_svg__st2{fill:#009938}</style><linearGradient id="logo_svg__SVGID_1_" gradientUnits="userSpaceOnUse" x1="0.5" y1="339.759" x2="1.207" y2="339.052"><stop offset="0" stop-color="#1eab4b"></stop><stop offset="0.983" stop-color="#19361a"></stop></linearGradient><path class="logo_svg__st0" d="M185.6 49.7c0-.6.4-1 1-1h13.1c.6 0 1 .4 1 1v67.8c0 .6-.4 1-1 1h-13.1c-.6 0-1-.4-1-1V49.7zM214 49.7c0-.6.4-1 1-1h13.1c.6 0 1 .4 1 1v30.2l23.2-30.3c.5-.7.9-.9 1.7-.9h15c.6 0 .9.7.4 1.3l-21.2 26.5 23.1 40.8c.4.7.1 1.2-.6 1.2h-15.1c-.8 0-1.1-.2-1.5-.9l-15.8-29.4-9.1 11.5v17.8c0 .6-.4 1-1 1h-13.1c-.6 0-1-.4-1-1V49.7zM279.4 92.8V49.7c0-.6.4-1 1-1h13.1c.6 0 1 .4 1 1v43.6c0 8.3 4.6 13 11.7 13 7 0 11.6-4.7 11.6-13V49.7c0-.6.4-1 1-1h13c.6 0 1 .4 1 1v43.2c0 17.4-11.1 26.8-26.7 26.8-15.6-.1-26.7-9.5-26.7-26.9zM342.7 110.1c-.4-.4-.6-1.1-.1-1.8l7.8-9c.4-.5 1-.5 1.5-.1 4.6 3.7 10.9 7.2 18.3 7.2 7.3 0 11.4-3.4 11.4-8.3 0-4.1-2.5-6.7-10.8-7.8l-3.7-.5c-14.2-2-22.1-8.6-22.1-21 0-12.8 9.7-21.3 24.8-21.3 9.3 0 17.9 2.8 23.7 7.3.6.4.7.8.2 1.5l-6.3 9.3c-.4.5-.9.6-1.4.3-5.4-3.5-10.5-5.3-16.2-5.3-6.2 0-9.4 3.2-9.4 7.6 0 4 2.9 6.6 10.9 7.7l3.7.5c14.4 2 22 8.5 22 21.2 0 12.6-9.4 22-27.4 22-10.9 0-21.5-4.3-26.9-9.5zM407.2 49.7c0-.6.4-1 1-1h13.1c.6 0 1 .4 1 1v67.8c0 .6-.4 1-1 1h-13.1c-.6 0-1-.4-1-1V49.7z" fill="#232320"></path><g><path class="logo_svg__st1" d="M308.1 144.5c-.6.3-1.1.9-1.5 1.9l-4.4 10.6-4.4-10.6c-.6-1.5-1.9-2.2-4-2.2h-4.2l9.4 20.3c.3.8 1.3 1.2 2.9 1.2 1.6 0 2.5-.4 2.9-1.2l9-20.3h-3.4c-1-.1-1.7.1-2.3.3M411.2 144.5h-6.4l1.2 3.9h5.2c2.7 0 4.3 1.8 4.3 4.3h-3.9c-5.2 0-9.3.9-9.3 6.5 0 1 .2 1.8.5 2.6h-5v-13.7c0-2.2-1.3-3.4-4-3.4H381.6V142c0-2.3-1.4-3.5-4.1-3.5h-2.4v6.2h-2.3l-1.5 3.8h3.7v9.3c0 1.7.2 3.1.6 4.2l-7.2-.1v-7.7c0-6.3-3.7-9.4-11.1-9.4h-6.4l1.2 3.9h5.2c2.7 0 4.3 1.8 4.3 4.3H358c-5.2 0-9.3.9-9.3 6.5 0 1 .2 1.8.5 2.6h-4.6v-24.2c0-2.3-1.3-3.5-4.1-3.5h-2.4v27.7h-14.2c-2.7 0-4.5-2.3-4.5-5v-2.4c0-1.6.2-2.9.7-4 .6-1.6 1.6-2.3 2.9-2.3h.6c2.2 0 3.4 1.7 3.6 5.2h-4.6l-1.3 3.5H333c.2-1.1.4-2 .4-2.8 0-6.4-3.3-9.7-9.7-9.7-6.6 0-10.7 3.4-10.7 10.1v1.4c0 6.9 4.5 9.9 11.1 9.9h36.8l-1.3-3.7h-.7c-2.2 0-3.5-.3-3.5-2.6 0-2.6 1.5-2.8 4-2.8h3v5.7c0 2.4 1.3 3.5 4 3.5h22.1l-1.3-3.9H385c-2.5 0-2.8-.9-2.8-3.5v-9.8h9.4V162c0 2.3 1.4 3.5 4.1 3.5h19.2l-1.3-3.7h-.7c-2.2 0-3.5-.3-3.5-2.6 0-2.6 1.5-2.8 4-2.8h3v5.7c0 2.4 1.3 3.5 4 3.5h2.5V154c-.6-6.4-4.3-9.5-11.7-9.5M394.7 140.7h3.2V137c0-1.8-1.2-3-3.4-3h-3.3v3.6c.1 1.9 1.3 3.1 3.5 3.1" fill="#B8B5B1"></path></g><g><path class="logo_svg__st2" d="M126.9 60.4c14.3.8 26.2 2 32.4 3.9-3-10.6-8.5-20.1-15.8-28-.7-.2-1.4-.3-2.1-.4-15.5 12.9-52.2 45.3-77.4 68.6-19.4-1-37.3-3.8-39.9-6.9 2.1 10.3 6.5 19.8 12.6 27.9 3.5 1.4 7.9 2.6 12.8 3.6 15.3-12.9 52-45.3 77.4-68.7z" fill="#009938"></path><path class="logo_svg__st2" d="M161 95.1c.6-3.7 1-7.6 1-11.5 0-4.7-.5-9.4-1.4-13.8-3.2-.8-8.7-1.5-15.6-2.1-19.6 21.9-57.8 55.1-77.9 68.3-9.9-1.1-18.8-2.7-25.8-4.9 6 6.4 13.2 11.7 21.2 15.5 13.4-6 40.1-24.7 64.6-48.4 15.6-.5 28.4-1.6 33.9-3.1zM70.2 151.1c.8 0 1.6.1 2.4.1 1.7.1 2.2.7 3.8.7h.6c.5 0 1.1.1 1.7.1-1.6-.3-3.3-.7-4.9-1.2-1.3.2-2.6.3-3.6.3z" fill="#009938"></path><path class="logo_svg__st2" d="M145.2 103c-21 24.3-55.8 45.1-71.4 47.8 1.6.4 3.2.8 4.9 1.2 10.1-.2 30.2-7.9 46.1-20.4 7.8-.8 15-2 21.1-3.5 6.6-7.9 11.5-17.4 14-27.7-3.2 1-8.3 1.9-14.7 2.6zM142.1 132.4c-14.6 10.6-36 19.1-47.3 20.9 18.5-.7 35.1-8.6 47.3-20.9zM84.5 14.3C69.1 16 55.3 22.7 44.6 32.8c1.7-.5 3.5-.9 5.4-1.3 10.2-8.9 23.7-15.1 34.5-17.2zM108.6 15.8c-2.1-.5-4.2-.9-6.3-1.2-9.5 1.9-22.6 8.3-35.9 18.7-10.7 1.1-20.2 2.8-27.2 5.2-7.1 8.3-12.2 18.4-14.8 29.4 2.2-2.3 11.6-5 21.6-6.1 18.9-21.7 46.5-40.7 62.6-46z" fill="#009938"></path><path class="logo_svg__st2" d="M30.2 95.3c3.2.8 8.6 1.5 15.4 2 19.6-21.9 57.8-55.2 78-68.4 5 .5 9.8 1.2 14.3 2.1-4.5-3.9-9.4-7.2-14.8-9.8-14.4 7.9-37.8 24.8-59.4 45.7-17.6.7-31.6 1.9-35.6 3.8-2 .8-3.7 1.8-4.7 2.5-.5 3.4-.8 7-.8 10.6 0 2.9.2 5.8.6 8.7 2.5 1.6 7 2.8 7 2.8z" fill="#009938"></path><radialGradient id="logo_svg__SVGID_2_" cx="-928.836" cy="-66.271" r="87.046" gradientTransform="translate(838.895 137.06) scale(.8038)" gradientUnits="userSpaceOnUse"><stop offset="0" stop-color="#fff"></stop><stop offset="0.853" stop-color="#fff" stop-opacity="0.487"></stop><stop offset="0.997" stop-color="#fff" stop-opacity="0.4"></stop></radialGradient><path d="M162.3 83.8c0 38.6-31.3 70-70 70-38.6 0-70-31.3-70-70 0-38.6 31.3-70 70-70 38.6 0 70 31.3 70 70z" opacity="0.44" fill="url(&quot;#logo_svg__SVGID_2_&quot;)"></path></g></svg>